<?xml version="1.0" encoding="UTF-8"?>
<svg version="1.1" xmlns="http://www.w3.org/2000/svg" width="174" height="174">
<path d="M0 0 C1.82064468 -0.01007584 1.82064468 -0.01007584 3.67807007 -0.02035522 C6.99653902 -0.03606829 10.31475761 -0.04270857 13.63324642 -0.0439868 C15.71082305 -0.04541209 17.78837374 -0.04968888 19.86594391 -0.05498123 C27.12646642 -0.07346714 34.38691567 -0.0816539 41.64746094 -0.08007812 C48.39466726 -0.07887802 55.14155304 -0.09995804 61.88867831 -0.13156545 C67.69783988 -0.1578003 73.50689724 -0.16844237 79.31611753 -0.16716731 C82.77837233 -0.16665966 86.24034222 -0.17223205 89.70253754 -0.19352341 C93.57004568 -0.21665916 97.43712165 -0.20734091 101.3046875 -0.1953125 C102.43750153 -0.20655151 103.57031555 -0.21779053 104.73745728 -0.22937012 C114.14551126 -0.15528115 122.35027314 1.98485821 129.37988281 8.51708984 C134.38489594 14.31371219 138.14166645 21.90170929 138.1920166 29.59449768 C138.20343689 30.64421249 138.21485718 31.69392731 138.22662354 32.77545166 C138.22997711 34.48749786 138.22997711 34.48749786 138.23339844 36.23413086 C138.24829315 38.04973763 138.24829315 38.04973763 138.26348877 39.90202332 C138.287663 43.21654138 138.30261199 46.53080775 138.31151009 49.84538388 C138.31738761 51.9211282 138.32560042 53.99685082 138.33451843 56.07258415 C138.361854 62.58127024 138.38119142 69.08990625 138.38892221 75.59864575 C138.39786543 83.0850915 138.43288119 90.5708036 138.4909234 98.05702645 C138.53433733 103.86025404 138.55434045 109.66327667 138.55700445 115.46666473 C138.55908881 118.92469964 138.57064613 122.38204435 138.60664368 125.83990669 C138.64612071 129.70722527 138.63695683 133.5736481 138.62402344 137.44116211 C138.642453 138.56835663 138.66088257 139.69555115 138.67987061 140.85690308 C138.57248203 151.16790582 135.03583431 159.46931012 127.72363281 166.79052734 C119.91044921 173.8177694 109.68739685 174.88317431 99.63769531 174.80810547 C98.46382263 174.81511475 97.28994995 174.82212402 96.08050537 174.8293457 C92.23213463 174.84683172 88.38450996 174.8353355 84.53613281 174.82177734 C81.84293024 174.82267045 79.14974056 174.82835451 76.45654297 174.83337402 C70.82478885 174.84062393 65.19324546 174.83113311 59.56152344 174.81201172 C53.07719595 174.79024785 46.59337178 174.79730113 40.10905647 174.81931734 C34.51291195 174.83754771 28.91691776 174.83999265 23.3207531 174.82956266 C19.99098219 174.82336927 16.66163439 174.8239775 13.33184814 174.83570862 C9.61574859 174.84592932 5.90059955 174.83029414 2.18457031 174.80810547 C1.10060974 174.81620239 0.01664917 174.82429932 -1.10015869 174.8326416 C-11.3622693 174.71979808 -20.53812619 172.15939146 -27.91794777 164.77183247 C-35.03458274 156.63770153 -36.97716344 148.03863536 -36.83349609 137.50463867 C-36.84079742 136.2883931 -36.84809875 135.07214752 -36.85562134 133.81904602 C-36.86894348 130.52119246 -36.85577823 127.22484809 -36.82895708 123.92711854 C-36.80610313 120.45602691 -36.81455986 116.98498513 -36.81845093 113.51383972 C-36.82020918 107.69123886 -36.79821222 101.86910712 -36.76123047 96.04663086 C-36.7188463 89.33557504 -36.71189239 82.62520398 -36.72435439 75.91404134 C-36.73577929 69.42663425 -36.72441029 62.93946579 -36.70200729 56.45209312 C-36.69277084 53.70468373 -36.69094315 50.9574216 -36.69517899 48.21000099 C-36.69592316 44.36901677 -36.67060374 40.52906155 -36.63818359 36.68823242 C-36.64313843 35.56124939 -36.64809326 34.43426636 -36.65319824 33.27313232 C-36.52587588 23.79141721 -33.72125785 15.29138416 -27.08886719 8.29052734 C-18.385882 1.29590592 -10.95045027 -0.00869935 0 0 Z " fill="#E5D9D0" transform="translate(36.0888671875,-0.29052734375)"/>
<path d="M0 0 C5.94 0 11.88 0 18 0 C18 15.51 18 31.02 18 47 C21.3 47 24.6 47 28 47 C28 31.49 28 15.98 28 0 C34.27 0 40.54 0 47 0 C47 15.51 47 31.02 47 47 C49.97 47 52.94 47 56 47 C56 31.49 56 15.98 56 0 C62.27 0 68.54 0 75 0 C75 20.13 75 40.26 75 61 C50.25 61 25.5 61 0 61 C0 40.87 0 20.74 0 0 Z " fill="#11100E" transform="translate(21,58)"/>
<path d="M0 0 C15.51 0 31.02 0 47 0 C47 12.21 47 24.42 47 37 C37.76 37 28.52 37 19 37 C19 44.92 19 52.84 19 61 C16.23625 61.825 13.4725 62.65 10.625 63.5 C9.75568848 63.76103516 8.88637695 64.02207031 7.99072266 64.29101562 C7.3054248 64.49404297 6.62012695 64.69707031 5.9140625 64.90625 C4.8614624 65.22045898 4.8614624 65.22045898 3.78759766 65.54101562 C2 66 2 66 0 66 C0 44.22 0 22.44 0 0 Z " fill="#12110F" transform="translate(106,58)"/>
<path d="M0 0 C2.97 0 5.94 0 9 0 C9 2.97 9 5.94 9 9 C6.03 9 3.06 9 0 9 C0 6.03 0 3.06 0 0 Z " fill="#E3D7CE" transform="translate(125,72)"/>
</svg>
