<?xml version="1.0" encoding="UTF-8"?>
<svg version="1.1" xmlns="http://www.w3.org/2000/svg" width="431" height="431">
<path d="M0 0 C1.19161934 -0.00523668 2.38323868 -0.01047336 3.6109677 -0.01586872 C6.89239196 -0.02820893 10.17368254 -0.03171407 13.45512545 -0.03127182 C17.00478644 -0.03292959 20.55440929 -0.04601403 24.10404968 -0.0574646 C31.85448559 -0.08024166 39.60489399 -0.08822762 47.35535884 -0.09329104 C52.20363122 -0.09655717 57.05189573 -0.10308522 61.90016365 -0.11029243 C75.34882188 -0.12985039 88.79747284 -0.1462588 102.2461462 -0.14916897 C103.10552541 -0.14935654 103.96490462 -0.14954411 104.85032562 -0.14973736 C106.59217171 -0.15010359 108.3340178 -0.15046729 110.07586389 -0.15082847 C111.37267978 -0.15110269 111.37267978 -0.15110269 112.69569397 -0.15138245 C113.56130518 -0.151563 114.4269164 -0.15174354 115.31875826 -0.15192956 C129.32801855 -0.1554672 143.33712474 -0.18246746 157.34633165 -0.21988034 C171.76231637 -0.25806834 186.17822485 -0.27732722 200.59426123 -0.27762848 C208.67500839 -0.27821076 216.75557178 -0.28655366 224.83627129 -0.31562614 C231.72033692 -0.34028115 238.60415179 -0.34732881 245.48824977 -0.33237862 C248.99254275 -0.3252663 252.49634202 -0.32581673 256.00057793 -0.34878922 C284.7456175 -0.50416339 307.02293515 4.23042312 328.19642639 24.57493591 C343.42416901 40.42527789 350.13739614 60.92332545 350.06259155 82.5881958 C350.0664171 83.78011384 350.07024265 84.97203188 350.07418412 86.20006865 C350.08266253 89.47749386 350.08230153 92.75477408 350.07800353 96.03220284 C350.07552263 99.5790161 350.08456731 103.12580373 350.09204102 106.67260742 C350.10475257 113.60942826 350.10658613 120.54621032 350.10424075 127.48304085 C350.10245338 133.12530194 350.1042162 138.76755132 350.10846519 144.40981102 C350.10906038 145.21468399 350.10965557 146.01955696 350.1102688 146.84882003 C350.11148063 148.48424692 350.11269476 150.1196738 350.11391117 151.75510069 C350.12477316 167.07242994 350.12263064 182.38973715 350.11652633 197.70706763 C350.11135895 211.69696799 350.12261028 225.68679867 350.14162455 239.67668525 C350.16103158 254.06668559 350.16925389 268.45665301 350.1655013 282.84666651 C350.16359352 290.91544843 350.16603532 298.98417108 350.18021584 307.05294228 C350.19216724 313.92244616 350.19349263 320.79185429 350.18142567 327.66135959 C350.17556309 331.16086814 350.17436413 334.66020188 350.18642807 338.15969849 C350.26446667 366.42539221 345.96162592 389.14924134 325.81752014 410.36399841 C314.26154393 421.33348711 296.84633384 431.36974421 280.60392284 431.41116905 C279.54625688 431.41624359 278.48859091 431.42131814 277.39887446 431.42654645 C276.23790934 431.42704421 275.07694422 431.42754197 273.88079834 431.42805481 C272.02944715 431.43462819 272.02944715 431.43462819 270.14069492 431.44133437 C266.71260166 431.45239404 263.28455399 431.45894531 259.85644948 431.46351552 C256.15952915 431.46947686 252.46262557 431.48108566 248.76571655 431.49180603 C239.83435034 431.51632222 230.90297857 431.5309583 221.97158906 431.5438661 C219.44734098 431.54757933 216.92309345 431.55155247 214.39884591 431.55561876 C198.71274218 431.58086226 183.02663756 431.60290845 167.340518 431.61534691 C163.70744511 431.61827647 160.07437226 431.62123814 156.44129944 431.62425232 C155.53834921 431.62499837 154.63539898 431.62574442 153.70508663 431.62651308 C139.09459839 431.63915276 124.48423224 431.6723571 109.87380102 431.71405415 C94.86138641 431.75654574 79.84903416 431.78005048 64.83655959 431.78526747 C56.41267158 431.78867397 47.98897415 431.80033849 39.56514549 431.83337021 C32.38695284 431.86147169 25.20898985 431.87232617 18.03074648 431.86117475 C14.37307051 431.85601324 10.71587466 431.85870911 7.0582695 431.88364029 C-21.14158104 432.06530701 -21.14158104 432.06530701 -33.19810486 426.27415466 C-34.38156651 425.71005575 -35.56502817 425.14595684 -36.7843523 424.56476402 C-55.75729086 415.13720221 -70.46792651 399.21165633 -77.47593689 379.19529724 C-79.60568778 372.79106853 -81.32011659 366.8119544 -81.32953262 360.04125214 C-81.33337377 359.0012621 -81.33721491 357.96127206 -81.34117246 356.88976717 C-81.34030597 355.75369634 -81.33943949 354.61762551 -81.33854675 353.4471283 C-81.34151788 352.23512992 -81.344489 351.02313155 -81.34755015 349.77440596 C-81.3547232 346.413116 -81.35740891 343.05187716 -81.35814762 339.69058323 C-81.36000079 336.06393424 -81.36754959 332.43729628 -81.37428284 328.81065369 C-81.3878576 320.88057926 -81.39388991 312.9505099 -81.3982935 305.0204258 C-81.40105809 300.06552651 -81.40529591 295.11062917 -81.40979767 290.1557312 C-81.42199059 276.4284655 -81.43228897 262.70120136 -81.43567276 248.97393036 C-81.43589233 248.09552812 -81.43611189 247.21712588 -81.43633811 246.31210539 C-81.43655639 245.43163236 -81.43677467 244.55115933 -81.43699956 243.6440053 C-81.43744302 241.85991446 -81.43788958 240.07582362 -81.43833923 238.29173279 C-81.43856066 237.40676713 -81.43878209 236.52180147 -81.43901023 235.61001867 C-81.44295497 221.2828062 -81.46039899 206.95564469 -81.48369876 192.62845188 C-81.5074448 177.90755725 -81.51987614 163.18668815 -81.52104068 148.46577406 C-81.52195576 140.20522251 -81.52766563 131.94473732 -81.54586029 123.6842041 C-81.56130543 116.64728129 -81.56635592 109.61044535 -81.55812219 102.5735088 C-81.55423087 98.98707616 -81.55507028 95.40081819 -81.56917953 91.81440735 C-81.58437805 87.91521418 -81.57600679 84.01626319 -81.56559753 80.11705017 C-81.57365394 78.99882512 -81.58171034 77.88060006 -81.59001088 76.7284894 C-81.52273663 65.89848724 -79.54748183 55.60479782 -74.38560486 46.02415466 C-74.03014587 45.34578552 -73.67468689 44.66741638 -73.30845642 43.9684906 C-72.29305689 42.05763504 -71.25288031 40.16349527 -70.19810486 38.27415466 C-69.72501892 37.41821716 -69.25193298 36.56227966 -68.76451111 35.68040466 C-58.07036137 18.16357779 -39.6195453 6.68848616 -20.05034536 1.72994465 C-13.31949132 0.25328905 -6.87504423 -0.01512243 0 0 Z " fill="#E5D9D0" transform="translate(81.19810485839844,-0.2741546630859375)"/>
<path d="M0 0 C11.55 0 23.1 0 35 0 C35 28.71 35 57.42 35 87 C40.61 87 46.22 87 52 87 C52 58.29 52 29.58 52 0 C63.55 0 75.1 0 87 0 C87 29.04 87 58.08 87 88 C92.94 88 98.88 88 105 88 C105 58.96 105 29.92 105 0 C116.55 0 128.1 0 140 0 C140 37.62 140 75.24 140 114 C93.8 114 47.6 114 0 114 C0 76.38 0 38.76 0 0 Z " fill="#11100E" transform="translate(92,139)"/>
<path d="M0 0 C29.04 0 58.08 0 88 0 C88 23.1 88 46.2 88 70 C70.51 70 53.02 70 35 70 C35 84.52 35 99.04 35 114 C24.86360567 117.37879811 24.86360567 117.37879811 19.94140625 118.60546875 C18.89662109 118.86650391 17.85183594 119.12753906 16.77539062 119.39648438 C15.18500977 119.78803711 15.18500977 119.78803711 13.5625 120.1875 C12.47517578 120.46013672 11.38785156 120.73277344 10.26757812 121.01367188 C2.2675047 123 2.2675047 123 0 123 C0 82.41 0 41.82 0 0 Z " fill="#11100E" transform="translate(251,139)"/>
<path d="M0 0 C5.94 0 11.88 0 18 0 C18 5.94 18 11.88 18 18 C12.06 18 6.12 18 0 18 C0 12.06 0 6.12 0 0 Z " fill="#DBD0C7" transform="translate(286,165)"/>
<path d="M0 0 C1.65 0 3.3 0 5 0 C5 3.63 5 7.26 5 11 C5.66 11 6.32 11 7 11 C7 7.37 7 3.74 7 0 C8.65 0 10.3 0 12 0 C12 3.63 12 7.26 12 11 C12.66 11 13.32 11 14 11 C14 7.37 14 3.74 14 0 C15.65 0 17.3 0 19 0 C19 4.95 19 9.9 19 15 C12.73 15 6.46 15 0 15 C0 10.05 0 5.1 0 0 Z " fill="#201F1C" transform="translate(158,293)"/>
<path d="M0 0 C3.96 0 7.92 0 12 0 C12 4.95 12 9.9 12 15 C10.35 15.33 8.7 15.66 7 16 C7 13.69 7 11.38 7 9 C6.34 9 5.68 9 5 9 C5 10.98 5 12.96 5 15 C3.35 15 1.7 15 0 15 C0 10.05 0 5.1 0 0 Z " fill="#33302D" transform="translate(192,293)"/>
<path d="M0 0 C3.96 0 7.92 0 12 0 C12 4.95 12 9.9 12 15 C10.35 15.33 8.7 15.66 7 16 C7 13.69 7 11.38 7 9 C6.34 9 5.68 9 5 9 C5 10.98 5 12.96 5 15 C3.35 15 1.7 15 0 15 C0 10.05 0 5.1 0 0 Z " fill="#201E1C" transform="translate(291,293)"/>
<path d="M0 0 C3.96 0 7.92 0 12 0 C12 4.95 12 9.9 12 15 C8.04 15 4.08 15 0 15 C0 10.05 0 5.1 0 0 Z " fill="#1E1C1A" transform="translate(141,293)"/>
<path d="M0 0 C3.63 0 7.26 0 11 0 C11 4.95 11 9.9 11 15 C7.37 15 3.74 15 0 15 C0 10.05 0 5.1 0 0 Z " fill="#0D0C0A" transform="translate(220,293)"/>
<path d="M0 0 C3.63 0 7.26 0 11 0 C11 4.95 11 9.9 11 15 C7.37 15 3.74 15 0 15 C0 10.05 0 5.1 0 0 Z " fill="#100F0C" transform="translate(179,293)"/>
<path d="M0 0 C1.65 0 3.3 0 5 0 C5 1.65 5 3.3 5 5 C5.66 5 6.32 5 7 5 C7 3.35 7 1.7 7 0 C8.65 0 10.3 0 12 0 C12 4.95 12 9.9 12 15 C10.35 15.33 8.7 15.66 7 16 C7 13.69 7 11.38 7 9 C6.34 9 5.68 9 5 9 C5 10.98 5 12.96 5 15 C3.35 15 1.7 15 0 15 C0 10.05 0 5.1 0 0 Z " fill="#1A1816" transform="translate(206,293)"/>
<path d="M0 0 C3.96 0 7.92 0 12 0 C12 4.95 12 9.9 12 15 C10.35 15.33 8.7 15.66 7 16 C7 11.71 7 7.42 7 3 C6.34 3 5.68 3 5 3 C5 6.96 5 10.92 5 15 C3.35 15 1.7 15 0 15 C0 10.05 0 5.1 0 0 Z " fill="#1D1B19" transform="translate(305,293)"/>
<path d="M0 0 C1.65 0 3.3 0 5 0 C5 1.65 5 3.3 5 5 C5.66 5 6.32 5 7 5 C7 3.35 7 1.7 7 0 C8.65 0 10.3 0 12 0 C12 4.95 12 9.9 12 15 C10.68 15 9.36 15 8 15 C8 13.02 8 11.04 8 9 C7.01 9 6.02 9 5 9 C5 10.98 5 12.96 5 15 C3.35 15 1.7 15 0 15 C0 10.05 0 5.1 0 0 Z " fill="#1E1C1A" transform="translate(127,293)"/>
<path d="M0 0 C3.96 0 7.92 0 12 0 C12 2.97 12 5.94 12 9 C9.69 9 7.38 9 5 9 C5 10.98 5 12.96 5 15 C3.35 15.33 1.7 15.66 0 16 C0 10.72 0 5.44 0 0 Z " fill="#181714" transform="translate(264,293)"/>
<path d="M0 0 C1.32 0 2.64 0 4 0 C4 3.96 4 7.92 4 12 C4.99 12 5.98 12 7 12 C7 8.04 7 4.08 7 0 C8.32 0 9.64 0 11 0 C11 4.95 11 9.9 11 15 C7.37 15 3.74 15 0 15 C0 10.05 0 5.1 0 0 Z " fill="#0E0D0B" transform="translate(234,293)"/>
<path d="M0 0 C0.33 0 0.66 0 1 0 C1 3.63 1 7.26 1 11 C1.66 11 2.32 11 3 11 C3 7.37 3 3.74 3 0 C4.65 0 6.3 0 8 0 C8 4.95 8 9.9 8 15 C1.73 15 -4.54 15 -11 15 C-11 14.67 -11 14.34 -11 14 C-5.06 13.505 -5.06 13.505 1 13 C0.67 12.67 0.34 12.34 0 12 C-0.07244053 9.98035801 -0.08377188 7.95832876 -0.0625 5.9375 C-0.05347656 4.83277344 -0.04445312 3.72804688 -0.03515625 2.58984375 C-0.02355469 1.73519531 -0.01195312 0.88054687 0 0 Z " fill="#2D2B28" transform="translate(169,293)"/>
<path d="M0 0 C3.63 0 7.26 0 11 0 C11 1.32 11 2.64 11 4 C10.01 4 9.02 4 8 4 C8 7.63 8 11.26 8 15 C6.35 15.33 4.7 15.66 3 16 C3 11.71 3 7.42 3 3 C2.01 3 1.02 3 0 3 C0 2.01 0 1.02 0 0 Z " fill="#1E1C19" transform="translate(248,293)"/>
<path d="M0 0 C3.63 0 7.26 0 11 0 C11 0.99 11 1.98 11 3 C10.01 3 9.02 3 8 3 C8 6.96 8 10.92 8 15 C6.35 15.33 4.7 15.66 3 16 C3 11.71 3 7.42 3 3 C2.01 3 1.02 3 0 3 C0 2.01 0 1.02 0 0 Z " fill="#1A1816" transform="translate(114,293)"/>
<path d="M0 0 C1.32 0 2.64 0 4 0 C4 4.29 4 8.58 4 13 C4.99 13 5.98 13 7 13 C7 12.34 7 11.68 7 11 C8.32 11 9.64 11 11 11 C11 12.65 11 14.3 11 16 C7.37 16 3.74 16 0 16 C0 10.72 0 5.44 0 0 Z " fill="#11100E" transform="translate(278,292)"/>
<path d="M0 0 C1.32 0 2.64 0 4 0 C4 4.62 4 9.24 4 14 C0.7 14 -2.6 14 -6 14 C-6 13.67 -6 13.34 -6 13 C-4.35 13 -2.7 13 -1 13 C-1.33 12.01 -1.66 11.02 -2 10 C-2.23188622 7.27668512 -2.13093368 4.74960731 -2 2 C-1.34 1.34 -0.68 0.68 0 0 Z " fill="#12110F" transform="translate(226,294)"/>
<path d="M0 0 C0 4.62 0 9.24 0 14 C-2.31 13.67 -4.62 13.34 -7 13 C-6.01 12.67 -5.02 12.34 -4 12 C-4 9.03 -4 6.06 -4 3 C-4.99 3 -5.98 3 -7 3 C-6.67 2.34 -6.34 1.68 -6 1 C-2 0 -2 0 0 0 Z " fill="#0C0C0A" transform="translate(190,293)"/>
<path d="M0 0 C1.32 0 2.64 0 4 0 C4 3.96 4 7.92 4 12 C4.99 12.33 5.98 12.66 7 13 C5 14 5 14 -1 14 C-0.67 9.38 -0.34 4.76 0 0 Z " fill="#0D0C0A" transform="translate(165,293)"/>
<path d="M0 0 C0.33 0 0.66 0 1 0 C1 1.65 1 3.3 1 5 C1.66 5 2.32 5 3 5 C3 3.35 3 1.7 3 0 C4.65 0 6.3 0 8 0 C8 4.95 8 9.9 8 15 C7.67 15 7.34 15 7 15 C7 12.69 7 10.38 7 8 C5.68 8 4.36 8 3 8 C3 7.34 3 6.68 3 6 C2.01 6 1.02 6 0 6 C0 4.02 0 2.04 0 0 Z " fill="#4D4945" transform="translate(210,293)"/>
<path d="M0 0 C2.31 0 4.62 0 7 0 C7 2.97 7 5.94 7 9 C4.69 9 2.38 9 0 9 C0 6.03 0 3.06 0 0 Z " fill="#A69D96" transform="translate(146,296)"/>
<path d="M0 0 C3.3 0 6.6 0 10 0 C10 0.99 10 1.98 10 3 C7.69 3 5.38 3 3 3 C3 5.97 3 8.94 3 12 C2.01 12.33 1.02 12.66 0 13 C0 8.71 0 4.42 0 0 Z " fill="#131210" transform="translate(143,293)"/>
<path d="M0 0 C3.3 0 6.6 0 10 0 C10 1.98 10 3.96 10 6 C8.68 6 7.36 6 6 6 C6 5.01 6 4.02 6 3 C4.68 3 3.36 3 2 3 C1.67 3.66 1.34 4.32 1 5 C0.67 3.35 0.34 1.7 0 0 Z " fill="#100F0D" transform="translate(194,293)"/>
<path d="M0 0 C0 2.97 0 5.94 0 9 C-0.66 9 -1.32 9 -2 9 C-2 7.68 -2 6.36 -2 5 C-3.98 5.33 -5.96 5.66 -8 6 C-8 5.01 -8 4.02 -8 3 C-7.01 3 -6.02 3 -5 3 C-5 2.34 -5 1.68 -5 1 C-2 0 -2 0 0 0 Z " fill="#3D3A37" transform="translate(276,293)"/>
<path d="M0 0 C0.33 0 0.66 0 1 0 C1 4.95 1 9.9 1 15 C0.34 14.67 -0.32 14.34 -1 14 C-1 13.34 -1 12.68 -1 12 C-3.64 11.67 -6.28 11.34 -9 11 C-9 10.67 -9 10.34 -9 10 C-8.05125 9.896875 -7.1025 9.79375 -6.125 9.6875 C-2.70892499 9.31460705 -2.70892499 9.31460705 -1 6 C-0.60986284 4.0103005 -0.26797351 2.00980131 0 0 Z " fill="#EDE0D7" transform="translate(156,293)"/>
<path d="M0 0 C1.32 0 2.64 0 4 0 C4 2.31 4 4.62 4 7 C2.68 7.33 1.36 7.66 0 8 C0 5.36 0 2.72 0 0 Z " fill="#0F0E0C" transform="translate(200,301)"/>
<path d="M0 0 C2.97 0 5.94 0 9 0 C8.01 0.33 7.02 0.66 6 1 C6 1.66 6 2.32 6 3 C5.01 3 4.02 3 3 3 C2.67 3.99 2.34 4.98 2 6 C1.01 6.495 1.01 6.495 0 7 C0 4.69 0 2.38 0 0 Z " fill="#0E0D0C" transform="translate(265,293)"/>
<path d="M0 0 C0.99 0 1.98 0 3 0 C3 2.97 3 5.94 3 9 C2.01 9 1.02 9 0 9 C0 6.03 0 3.06 0 0 Z " fill="#AAA29B" transform="translate(183,296)"/>
<path d="M0 0 C0.99 0 1.98 0 3 0 C3 2.97 3 5.94 3 9 C2.01 8.67 1.02 8.34 0 8 C0 5.36 0 2.72 0 0 Z " fill="#AEA69F" transform="translate(224,296)"/>
<path d="M0 0 C0.99 0 1.98 0 3 0 C3 2.31 3 4.62 3 7 C2.01 7 1.02 7 0 7 C0 4.69 0 2.38 0 0 Z " fill="#0A0907" transform="translate(214,301)"/>
<path d="M0 0 C0.99 0.33 1.98 0.66 3 1 C3 1.66 3 2.32 3 3 C3.66 3 4.32 3 5 3 C5 3.99 5 4.98 5 6 C3.35 6.33 1.7 6.66 0 7 C0 4.69 0 2.38 0 0 Z " fill="#312F2C" transform="translate(298,302)"/>
<path d="M0 0 C1.98 0 3.96 0 6 0 C6 0.99 6 1.98 6 3 C4.02 3 2.04 3 0 3 C0 2.01 0 1.02 0 0 Z " fill="#171613" transform="translate(147,299)"/>
<path d="M0 0 C0.99 0 1.98 0 3 0 C3 1.98 3 3.96 3 6 C2.01 6 1.02 6 0 6 C0 4.02 0 2.04 0 0 Z " fill="#0B0A08" transform="translate(214,293)"/>
</svg>
